<?xml version="1.0" standalone="no"?>
<!DOCTYPE svg PUBLIC "-//W3C//DTD SVG 20010904//EN"
 "http://www.w3.org/TR/2001/REC-SVG-20010904/DTD/svg10.dtd">
<svg version="1.0" xmlns="http://www.w3.org/2000/svg"
 width="500.000000pt" height="500.000000pt" viewBox="0 0 500.000000 500.000000"
 preserveAspectRatio="xMidYMid meet">

<g transform="translate(0.000000,500.000000) scale(0.100000,-0.100000)"
fill="#000000" stroke="none">
<path d="M2209 4256 c-97 -52 -215 -227 -248 -370 -38 -159 -65 -598 -42 -681
17 -62 37 -70 181 -70 123 0 125 0 128 -23 3 -18 -27 -54 -140 -170 -79 -81
-166 -177 -193 -214 -167 -226 -266 -473 -265 -666 2 -344 222 -624 578 -736
108 -34 246 -56 349 -56 69 0 82 -3 87 -17 3 -10 17 -85 31 -168 46 -256 22
-381 -91 -484 -81 -75 -175 -90 -269 -45 l-40 19 50 6 c28 4 65 14 82 22 89
47 120 176 62 262 -25 36 -107 85 -143 85 -73 0 -147 -48 -177 -115 -36 -79
-18 -149 59 -228 72 -75 130 -100 227 -101 72 -1 88 3 148 32 83 41 136 103
167 196 29 87 27 189 -5 384 -14 84 -25 156 -25 161 0 5 26 15 58 21 108 22
192 51 294 102 238 119 368 333 368 607 0 247 -134 470 -341 569 -99 47 -162
62 -267 62 -96 0 -199 -27 -286 -73 -43 -23 -69 -31 -71 -24 -2 7 -11 59 -20
117 -8 58 -18 118 -20 134 -4 24 5 39 61 100 167 180 273 360 319 541 18 72
28 144 34 264 9 160 2 235 -14 160 -13 -61 -68 -159 -115 -208 -81 -81 -237
-149 -429 -185 -105 -20 -165 -20 -196 0 -43 28 -58 113 -31 177 32 77 194
217 251 217 11 0 37 -14 58 -31 21 -17 44 -29 51 -26 19 8 37 93 43 212 6 120
-6 173 -51 223 -31 33 -38 36 -97 39 -53 3 -72 -1 -110 -21z m201 -1626 l22
-145 -34 -30 c-136 -125 -208 -334 -178 -517 12 -74 51 -186 77 -223 13 -18
14 -15 7 30 -13 80 -7 214 11 284 20 80 62 164 109 220 40 48 36 53 57 -69 13
-83 137 -747 145 -779 l5 -24 -79 7 c-117 9 -224 40 -342 98 -90 43 -117 63
-185 132 -122 123 -175 241 -175 391 0 118 32 209 123 348 77 119 164 215 295
327 64 55 117 98 118 97 1 -1 12 -67 24 -147z m503 -195 c308 -65 500 -405
394 -699 -27 -74 -82 -152 -137 -196 -46 -36 -152 -89 -238 -119 -65 -22 -208
-48 -217 -40 -5 6 -132 623 -170 828 -28 153 -33 138 64 186 55 27 153 53 206
54 17 0 60 -6 98 -14z"/>
</g>
</svg>
